<svg width="23" height="24" viewBox="0 0 23 24" fill="none" xmlns="http://www.w3.org/2000/svg">
<path d="M11.5 1C17.8513 1 23 6.14873 23 12.5C23 18.8513 17.8513 24 11.5 24C9.5492 24 7.70908 23.5112 6.09668 22.6514L3.77051 23.4746C1.63046 24.2308 -0.431009 22.1694 0.325195 20.0293L1.18652 17.5898C0.427148 16.0536 0 14.3247 0 12.5C0 6.14873 5.14873 1 11.5 1ZM6.5498 11.2998C5.85945 11.2998 5.2998 11.8594 5.2998 12.5498C5.2998 13.2402 5.85945 13.7998 6.5498 13.7998C7.24016 13.7998 7.7998 13.2402 7.7998 12.5498C7.7998 11.8594 7.24016 11.2998 6.5498 11.2998ZM11.5498 11.2998C10.8594 11.2998 10.2998 11.8594 10.2998 12.5498C10.2998 13.2402 10.8594 13.7998 11.5498 13.7998C12.2402 13.7998 12.7998 13.2402 12.7998 12.5498C12.7998 11.8594 12.2402 11.2998 11.5498 11.2998ZM16.5498 11.2998C15.8594 11.2998 15.2998 11.8594 15.2998 12.5498C15.2998 13.2402 15.8594 13.7998 16.5498 13.7998C17.2402 13.7998 17.7998 13.2402 17.7998 12.5498C17.7998 11.8594 17.2402 11.2998 16.5498 11.2998Z" fill="white"/>
<path d="M14.6768 1.44629C15.1079 0.185076 16.8922 0.184165 17.3232 1.44629L17.6855 2.50684L17.7412 2.64355C17.8046 2.77714 17.891 2.89883 17.9961 3.00391C18.1361 3.1439 18.3058 3.25043 18.4932 3.31445L19.5537 3.67676C20.8149 4.10793 20.8158 5.89224 19.5537 6.32324L18.4932 6.68555C18.3058 6.74957 18.1361 6.8561 17.9961 6.99609C17.8561 7.13608 17.7496 7.30583 17.6855 7.49316L17.3232 8.55371C16.8921 9.81495 15.1078 9.81581 14.6768 8.55371L14.3145 7.49316C14.2505 7.30604 14.1446 7.13601 14.0049 6.99609C13.8649 6.85606 13.6942 6.74961 13.5068 6.68555L12.4473 6.32324H12.4463C11.1848 5.89185 11.1844 4.10749 12.4473 3.67676L13.5068 3.31445C13.6939 3.25045 13.864 3.14468 14.0039 3.00488C14.1439 2.86492 14.2504 2.69413 14.3145 2.50684L14.6768 1.44629Z" fill="white" stroke="#343836"/>
</svg>
