<svg preserveAspectRatio="none" overflow="visible" style="display: block;" width="6.82031" height="13.0003" viewBox="0 0 6.82031 13.0003" fill="none" xmlns="http://www.w3.org/2000/svg">
<path id="Subtract" d="M2.58887 7.63379C3.565 7.73296 4.53212 7.94486 5.46875 8.27344C6.27893 8.55767 6.82031 9.3112 6.82031 10.1562V11.0576C6.82031 12.2392 5.7543 13.1476 4.56348 12.9805L4.29004 12.9414C4.23482 12.9337 4.17929 12.9282 4.12402 12.9209C4.19826 12.62 4.2402 12.3052 4.24023 11.9795V10.8594C4.24022 9.55913 3.60693 8.36969 2.58887 7.63379ZM1.32031 0C3.2013 0.000249297 4.72638 1.49805 4.72656 3.3457C4.72656 5.19351 3.20141 6.69213 1.32031 6.69238C0.852193 6.69238 0.406003 6.59848 0 6.43066C1.04062 5.40522 1.68651 3.98069 1.68652 2.4043C1.68652 1.54545 1.49397 0.731967 1.15137 0.00292969C1.20717 0.000261044 1.26384 0 1.32031 0Z" fill="white"/>
</svg>
